<svg width="318" height="318" viewBox="0 0 318 318" fill="none" xmlns="http://www.w3.org/2000/svg">
<circle cx="159" cy="159" r="159" fill="white"/>
<g filter="url(#filter0_b_5_120)">
<path d="M83.2823 120.23C86.6256 111.825 98.5228 111.825 101.866 120.23L137.853 210.704C140.465 217.27 135.628 224.4 128.561 224.4H56.5871C49.5207 224.4 44.6835 217.27 47.2952 210.704L83.2823 120.23Z" fill="#089C70"/>
</g>
<ellipse cx="93.137" cy="84.3351" rx="12.9539" ry="12.535" fill="#089C70"/>
<path d="M207.255 219.85C198.188 219.85 189.972 218.15 182.605 214.75C175.352 211.35 169.062 206.76 163.735 200.98C158.522 195.087 154.498 188.513 151.665 181.26C148.832 173.893 147.415 166.3 147.415 158.48C147.415 150.433 148.888 142.783 151.835 135.53C154.895 128.163 159.088 121.647 164.415 115.98C169.855 110.313 176.258 105.837 183.625 102.55C190.992 99.15 199.038 97.45 207.765 97.45C216.718 97.45 224.822 99.2067 232.075 102.72C239.442 106.233 245.732 110.937 250.945 116.83C256.272 122.723 260.352 129.353 263.185 136.72C266.018 143.973 267.435 151.397 267.435 158.99C267.435 167.037 265.962 174.687 263.015 181.94C260.068 189.193 255.875 195.71 250.435 201.49C244.995 207.157 238.592 211.633 231.225 214.92C223.972 218.207 215.982 219.85 207.255 219.85ZM207.425 195.03C212.752 195.03 217.398 194.01 221.365 191.97C225.332 189.817 228.618 187.04 231.225 183.64C233.832 180.127 235.758 176.217 237.005 171.91C238.365 167.49 239.045 163.013 239.045 158.48C239.045 153.833 238.365 149.357 237.005 145.05C235.645 140.63 233.605 136.72 230.885 133.32C228.165 129.92 224.822 127.257 220.855 125.33C216.888 123.29 212.412 122.27 207.425 122.27C202.098 122.27 197.452 123.347 193.485 125.5C189.632 127.54 186.345 130.317 183.625 133.83C181.018 137.23 179.035 141.14 177.675 145.56C176.428 149.867 175.805 154.287 175.805 158.82C175.805 163.467 176.485 167.943 177.845 172.25C179.205 176.557 181.188 180.467 183.795 183.98C186.515 187.38 189.858 190.1 193.825 192.14C197.792 194.067 202.325 195.03 207.425 195.03ZM199.945 171.4H226.125L269.135 219H242.955L199.945 171.4Z" fill="#08289C"/>
<defs>
<filter id="filter0_b_5_120" x="42.5771" y="109.926" width="99.9937" height="118.474" filterUnits="userSpaceOnUse" color-interpolation-filters="sRGB">
<feFlood flood-opacity="0" result="BackgroundImageFix"/>
<feGaussianBlur in="BackgroundImage" stdDeviation="2"/>
<feComposite in2="SourceAlpha" operator="in" result="effect1_backgroundBlur_5_120"/>
<feBlend mode="normal" in="SourceGraphic" in2="effect1_backgroundBlur_5_120" result="shape"/>
</filter>
</defs>
</svg>
