<svg width="739" height="200" viewBox="0 0 739 200" fill="none" xmlns="http://www.w3.org/2000/svg">
<g filter="url(#filter0_b_5_120)">
<path d="M15.7143 160V70.75H42.9143V160H15.7143ZM15.7143 60.55V35.9H42.9143V60.55H15.7143ZM63.2346 115.29C63.2346 106.563 64.9346 98.7433 68.3346 91.83C71.7346 84.8033 76.3813 79.25 82.2746 75.17C88.168 71.09 94.968 69.05 102.675 69.05C108.908 69.05 114.575 70.58 119.675 73.64C124.775 76.5867 128.628 80.4967 131.235 85.37V35.9H158.435V129.74C158.435 132.46 158.888 134.387 159.795 135.52C160.701 136.54 162.175 137.163 164.215 137.39V160C159.455 160.907 155.601 161.36 152.655 161.36C148.008 161.36 144.211 160.34 141.265 158.3C138.431 156.26 136.675 153.427 135.995 149.8L135.485 145.21C132.311 150.763 128.005 154.9 122.565 157.62C117.125 160.34 111.401 161.7 105.395 161.7C99.2746 161.7 93.608 160.567 88.3946 158.3C83.2946 155.92 78.818 152.633 74.9646 148.44C71.2246 144.247 68.3346 139.317 66.2946 133.65C64.2546 127.983 63.2346 121.863 63.2346 115.29ZM131.405 126.34V107.64C130.271 104.58 128.628 101.917 126.475 99.65C124.435 97.3833 122.055 95.57 119.335 94.21C116.728 92.85 114.065 92.17 111.345 92.17C108.398 92.17 105.678 92.7933 103.185 94.04C100.805 95.2867 98.708 97.0433 96.8946 99.31C95.0813 101.463 93.6646 103.957 92.6446 106.79C91.738 109.623 91.2846 112.627 91.2846 115.8C91.2846 119.087 91.7946 122.147 92.8146 124.98C93.948 127.7 95.478 130.137 97.4046 132.29C99.3313 134.33 101.598 135.917 104.205 137.05C106.811 138.183 109.645 138.75 112.705 138.75C114.631 138.75 116.501 138.467 118.315 137.9C120.128 137.22 121.828 136.37 123.415 135.35C125.115 134.33 126.645 133.027 128.005 131.44C129.365 129.853 130.498 128.153 131.405 126.34ZM229.035 161.7C221.442 161.7 214.698 160.51 208.805 158.13C202.912 155.637 197.868 152.293 193.675 148.1C189.595 143.907 186.478 139.09 184.325 133.65C182.172 128.097 181.095 122.317 181.095 116.31C181.095 107.697 182.965 99.8767 186.705 92.85C190.558 85.71 196.055 79.9867 203.195 75.68C210.335 71.26 218.948 69.05 229.035 69.05C239.122 69.05 247.678 71.2033 254.705 75.51C261.845 79.8167 267.285 85.4833 271.025 92.51C274.765 99.4233 276.635 106.96 276.635 115.12C276.635 116.707 276.522 118.293 276.295 119.88C276.182 121.353 276.068 122.657 275.955 123.79H209.995C210.335 127.757 211.412 131.1 213.225 133.82C215.152 136.54 217.588 138.637 220.535 140.11C223.482 141.47 226.598 142.15 229.885 142.15C233.965 142.15 237.762 141.187 241.275 139.26C244.902 137.333 247.395 134.727 248.755 131.44L271.875 137.9C269.608 142.547 266.378 146.683 262.185 150.31C258.105 153.823 253.232 156.6 247.565 158.64C242.012 160.68 235.835 161.7 229.035 161.7ZM209.315 107.13H248.075C247.622 103.39 246.545 100.16 244.845 97.44C243.145 94.6067 240.878 92.4533 238.045 90.98C235.212 89.3933 232.095 88.6 228.695 88.6C225.182 88.6 222.008 89.3933 219.175 90.98C216.455 92.4533 214.245 94.6067 212.545 97.44C210.845 100.16 209.768 103.39 209.315 107.13ZM290.153 133.31C290.153 127.417 291.796 122.26 295.083 117.84C298.369 113.42 302.903 109.963 308.683 107.47C314.463 104.863 321.093 103.56 328.573 103.56C332.199 103.56 335.769 103.9 339.283 104.58C342.796 105.147 345.856 105.997 348.463 107.13V103.22C348.463 98.3467 346.989 94.6067 344.043 92C341.096 89.3933 336.619 88.09 330.613 88.09C325.626 88.09 320.923 88.94 316.503 90.64C312.196 92.34 307.606 94.7767 302.733 97.95L294.573 80.61C300.466 76.7567 306.586 73.8667 312.933 71.94C319.393 70.0133 326.193 69.05 333.333 69.05C346.706 69.05 357.076 72.28 364.443 78.74C371.923 85.0867 375.663 94.3233 375.663 106.45V129.74C375.663 132.46 376.059 134.387 376.853 135.52C377.759 136.54 379.289 137.163 381.443 137.39V160C379.176 160.453 377.023 160.793 374.983 161.02C373.056 161.247 371.356 161.36 369.883 161.36C364.783 161.36 360.873 160.34 358.153 158.3C355.546 156.26 353.903 153.483 353.223 149.97L352.713 146.06C348.746 151.16 343.986 155.07 338.433 157.79C332.993 160.397 327.269 161.7 321.263 161.7C315.369 161.7 310.043 160.453 305.283 157.96C300.636 155.467 296.953 152.067 294.233 147.76C291.513 143.453 290.153 138.637 290.153 133.31ZM344.213 136.71C345.459 135.69 346.479 134.557 347.273 133.31C348.066 132.063 348.463 130.873 348.463 129.74V121.75C346.196 120.843 343.646 120.163 340.813 119.71C338.093 119.143 335.543 118.86 333.163 118.86C328.176 118.86 324.039 119.993 320.753 122.26C317.466 124.413 315.823 127.303 315.823 130.93C315.823 132.97 316.389 134.84 317.523 136.54C318.656 138.24 320.186 139.6 322.113 140.62C324.153 141.64 326.533 142.15 329.253 142.15C331.973 142.15 334.693 141.64 337.413 140.62C340.133 139.6 342.399 138.297 344.213 136.71ZM436.342 161.7C428.749 161.7 421.325 160.453 414.072 157.96C406.819 155.467 400.699 151.783 395.712 146.91L405.062 129.74C410.502 133.707 415.772 136.71 420.872 138.75C426.085 140.79 430.959 141.81 435.492 141.81C439.005 141.81 441.725 141.243 443.652 140.11C445.579 138.977 446.542 137.22 446.542 134.84C446.542 133.14 445.975 131.837 444.842 130.93C443.709 129.91 441.952 129.003 439.572 128.21C437.305 127.417 434.472 126.567 431.072 125.66C424.272 123.393 418.605 121.183 414.072 119.03C409.539 116.877 406.139 114.27 403.872 111.21C401.605 108.037 400.472 103.957 400.472 98.97C400.472 92.9633 401.945 87.75 404.892 83.33C407.952 78.7967 412.259 75.2833 417.812 72.79C423.365 70.2967 429.995 69.05 437.702 69.05C443.822 69.05 449.772 70.0133 455.552 71.94C461.445 73.8667 466.942 77.0967 472.042 81.63L461.502 98.63C456.402 95.1167 451.869 92.5667 447.902 90.98C443.935 89.3933 440.082 88.6 436.342 88.6C434.415 88.6 432.659 88.8267 431.072 89.28C429.485 89.7333 428.182 90.5267 427.162 91.66C426.255 92.68 425.802 94.04 425.802 95.74C425.802 97.44 426.255 98.8 427.162 99.82C428.182 100.84 429.712 101.747 431.752 102.54C433.905 103.22 436.569 104.07 439.742 105.09C447.109 107.243 453.229 109.453 458.102 111.72C462.975 113.873 466.602 116.593 468.982 119.88C471.475 123.053 472.722 127.303 472.722 132.63C472.722 141.697 469.435 148.837 462.862 154.05C456.402 159.15 447.562 161.7 436.342 161.7Z" fill="#08289C"/>
</g>
<g filter="url(#filter1_b_5_120)">
<path d="M554.179 67.1415C557.522 58.7361 569.419 58.7361 572.762 67.1415L604.329 146.503C606.941 153.069 602.104 160.199 595.038 160.199H531.903C524.837 160.199 520 153.069 522.611 146.503L554.179 67.1415Z" fill="#089C70"/>
</g>
<ellipse cx="563.985" cy="32.3383" rx="11.8252" ry="11.4428" fill="#089C70"/>
<path d="M668.153 161.845C659.086 161.845 650.869 160.145 643.503 156.745C636.249 153.345 629.959 148.755 624.633 142.975C619.419 137.082 615.396 130.508 612.563 123.255C609.729 115.888 608.313 108.295 608.313 100.475C608.313 92.4283 609.786 84.7783 612.733 77.525C615.793 70.1583 619.986 63.6417 625.313 57.975C630.753 52.3083 637.156 47.8317 644.523 44.545C651.889 41.145 659.936 39.445 668.663 39.445C677.616 39.445 685.719 41.2017 692.973 44.715C700.339 48.2283 706.629 52.9317 711.843 58.825C717.169 64.7183 721.249 71.3483 724.083 78.715C726.916 85.9683 728.333 93.3917 728.333 100.985C728.333 109.032 726.859 116.682 723.913 123.935C720.966 131.188 716.773 137.705 711.333 143.485C705.893 149.152 699.489 153.628 692.123 156.915C684.869 160.202 676.879 161.845 668.153 161.845ZM668.323 137.025C673.649 137.025 678.296 136.005 682.263 133.965C686.229 131.812 689.516 129.035 692.123 125.635C694.729 122.122 696.656 118.212 697.903 113.905C699.263 109.485 699.943 105.008 699.943 100.475C699.943 95.8283 699.263 91.3517 697.903 87.045C696.543 82.625 694.503 78.715 691.783 75.315C689.063 71.915 685.719 69.2517 681.753 67.325C677.786 65.285 673.309 64.265 668.323 64.265C662.996 64.265 658.349 65.3417 654.383 67.495C650.529 69.535 647.243 72.3117 644.523 75.825C641.916 79.225 639.933 83.135 638.573 87.555C637.326 91.8617 636.703 96.2817 636.703 100.815C636.703 105.462 637.383 109.938 638.743 114.245C640.103 118.552 642.086 122.462 644.693 125.975C647.413 129.375 650.756 132.095 654.723 134.135C658.689 136.062 663.223 137.025 668.323 137.025ZM660.843 113.395H687.023L730.033 160.995H703.853L660.843 113.395Z" fill="#08289C"/>
<defs>
<filter id="filter0_b_5_120" x="8.67144" y="28.8571" width="471.094" height="139.886" filterUnits="userSpaceOnUse" color-interpolation-filters="sRGB">
<feFlood flood-opacity="0" result="BackgroundImageFix"/>
<feGaussianBlur in="BackgroundImage" stdDeviation="3.52146"/>
<feComposite in2="SourceAlpha" operator="in" result="effect1_backgroundBlur_5_120"/>
<feBlend mode="normal" in="SourceGraphic" in2="effect1_backgroundBlur_5_120" result="shape"/>
</filter>
<filter id="filter1_b_5_120" x="517.894" y="56.8375" width="91.1538" height="107.362" filterUnits="userSpaceOnUse" color-interpolation-filters="sRGB">
<feFlood flood-opacity="0" result="BackgroundImageFix"/>
<feGaussianBlur in="BackgroundImage" stdDeviation="2"/>
<feComposite in2="SourceAlpha" operator="in" result="effect1_backgroundBlur_5_120"/>
<feBlend mode="normal" in="SourceGraphic" in2="effect1_backgroundBlur_5_120" result="shape"/>
</filter>
</defs>
</svg>
